<svg viewBox="0 0 132 289" fill="none" xmlns="http://www.w3.org/2000/svg">
<path d="M26 0.5C53.2029 0.499786 61.5 24 61.5 36.5C61.5 52.9999 61.7292 42.5 61.5 70C61.1146 116.251 104.955 127.838 129.323 128.024C130.208 128.01 131.1 128 132 128V161C131.1 161 130.208 160.989 129.323 160.975C104.955 161.161 61.1146 172.749 61.5 219C61.7292 246.5 61.5 236 61.5 252.5C61.5 265 53.2029 288.5 26 288.5H0V267.5H18C23.5 268 34.3 265.7 33.5 252.5V219C32.7177 198.66 40.5845 164.681 70.4561 144.5C40.5845 124.319 32.7177 90.3404 33.5 70V36.5C34.3 23.3 23.5 21 18 21.5H0V0.5H26Z" fill="currentColor"/>
</svg>
