<svg width="60" height="37" viewBox="0 0 60 37" fill="none" xmlns="http://www.w3.org/2000/svg">
<g clip-path="url(#clip0_27_255)">
<path d="M17.0526 13.634C17.0526 14.3659 17.1316 14.9593 17.2697 15.3945C17.4276 15.8296 17.625 16.3043 17.9013 16.8186C18 16.9769 18.0395 17.1351 18.0395 17.2736C18.0395 17.4714 17.9211 17.6692 17.6645 17.867L16.4211 18.6978C16.2434 18.8164 16.0658 18.8758 15.9079 18.8758C15.7105 18.8758 15.5132 18.7769 15.3158 18.5988C15.0395 18.3021 14.8026 17.9857 14.6053 17.6692C14.4079 17.3329 14.2105 16.9571 13.9934 16.5021C12.454 18.3219 10.5197 19.2318 8.19079 19.2318C6.5329 19.2318 5.21053 18.7571 4.24342 17.8076C3.27632 16.8582 2.7829 15.5923 2.7829 14.0098C2.7829 12.3285 3.375 10.9637 4.57895 9.93511C5.7829 8.90654 7.38158 8.39226 9.41448 8.39226C10.0855 8.39226 10.7763 8.4516 11.5066 8.5505C12.2368 8.6494 12.9868 8.80764 13.7763 8.98566V7.54171C13.7763 6.03841 13.4605 4.99006 12.8487 4.37687C12.2171 3.76368 11.1513 3.46698 9.63158 3.46698C8.94079 3.46698 8.23027 3.5461 7.5 3.72412C6.76974 3.90214 6.05921 4.11973 5.36842 4.39665C5.05263 4.53511 4.81579 4.61423 4.67763 4.65379C4.53948 4.69335 4.44079 4.71313 4.36185 4.71313C4.08553 4.71313 3.94737 4.51533 3.94737 4.09995V3.13072C3.94737 2.81423 3.98685 2.57687 4.08553 2.43841C4.18421 2.29995 4.36185 2.16149 4.63816 2.02302C5.32895 1.66698 6.1579 1.37028 7.125 1.13291C8.09211 0.875771 9.11842 0.75709 10.2039 0.75709C12.5526 0.75709 14.2697 1.29116 15.375 2.35929C16.4605 3.42742 17.0132 5.0494 17.0132 7.22522V13.634H17.0526ZM9.03948 16.6406C9.69079 16.6406 10.3618 16.5219 11.0724 16.2846C11.7829 16.0472 12.4145 15.612 12.9474 15.0186C13.2632 14.6428 13.5 14.2274 13.6184 13.7527C13.7368 13.278 13.8158 12.7043 13.8158 12.0318V11.201C13.2434 11.0626 12.6316 10.9439 12 10.8648C11.3684 10.7857 10.7566 10.7461 10.1447 10.7461C8.82237 10.7461 7.85527 11.0032 7.20395 11.5373C6.55263 12.0714 6.23685 12.823 6.23685 13.812C6.23685 14.7417 6.47369 15.434 6.96711 15.9087C7.44079 16.4032 8.13158 16.6406 9.03948 16.6406ZM24.8882 18.7769C24.5329 18.7769 24.2961 18.7175 24.1382 18.5791C23.9803 18.4604 23.8421 18.1835 23.7237 17.8076L19.0855 2.51753C18.9671 2.12192 18.9079 1.86478 18.9079 1.72632C18.9079 1.40984 19.0658 1.23181 19.3816 1.23181H21.3158C21.6908 1.23181 21.9474 1.29116 22.0855 1.42962C22.2434 1.5483 22.3618 1.82522 22.4803 2.20105L25.7961 15.2956L28.875 2.20105C28.9737 1.80544 29.0921 1.5483 29.25 1.42962C29.4079 1.31094 29.6842 1.23181 30.0395 1.23181H31.6184C31.9934 1.23181 32.25 1.29116 32.4079 1.42962C32.5658 1.5483 32.7039 1.82522 32.7829 2.20105L35.9013 15.4538L39.3158 2.20105C39.4342 1.80544 39.5724 1.5483 39.7105 1.42962C39.8684 1.31094 40.125 1.23181 40.4803 1.23181H42.3158C42.6316 1.23181 42.8092 1.39006 42.8092 1.72632C42.8092 1.82522 42.7895 1.92412 42.7697 2.0428C42.75 2.16149 42.7105 2.31973 42.6316 2.53731L37.875 17.8274C37.7566 18.223 37.6184 18.4802 37.4605 18.5988C37.3026 18.7175 37.0461 18.7966 36.7105 18.7966H35.0132C34.6382 18.7966 34.3816 18.7373 34.2237 18.5988C34.0658 18.4604 33.9276 18.2032 33.8487 17.8076L30.7895 5.0494L27.75 17.7879C27.6513 18.1835 27.5329 18.4406 27.375 18.5791C27.2171 18.7175 26.9408 18.7769 26.5855 18.7769H24.8882ZM50.25 19.3109C49.2237 19.3109 48.1974 19.1923 47.2105 18.9549C46.2237 18.7175 45.4539 18.4604 44.9408 18.1637C44.625 17.9857 44.4079 17.7879 44.3289 17.6098C44.25 17.4318 44.2105 17.234 44.2105 17.056V16.0472C44.2105 15.6318 44.3684 15.434 44.6645 15.434C44.7829 15.434 44.9013 15.4538 45.0197 15.4934C45.1382 15.5329 45.3158 15.612 45.5132 15.6912C46.1842 15.9879 46.9145 16.2252 47.6842 16.3835C48.4737 16.5417 49.2434 16.6208 50.0329 16.6208C51.2763 16.6208 52.2434 16.4032 52.9145 15.9681C53.5855 15.5329 53.9408 14.8999 53.9408 14.089C53.9408 13.5351 53.7632 13.0802 53.4079 12.7043C53.0526 12.3285 52.3816 11.9923 51.4145 11.6758L48.5526 10.7857C47.1118 10.3307 46.0461 9.65819 45.3947 8.76808C44.7434 7.89775 44.4079 6.92852 44.4079 5.89995C44.4079 5.06918 44.5855 4.33731 44.9408 3.70434C45.2961 3.07138 45.7697 2.51753 46.3618 2.08236C46.9539 1.62742 47.625 1.29116 48.4145 1.05379C49.2039 0.81643 50.0329 0.717529 50.9013 0.717529C51.3355 0.717529 51.7895 0.73731 52.2237 0.79665C52.6776 0.855991 53.0921 0.935112 53.5066 1.01423C53.9013 1.11313 54.2763 1.21203 54.6316 1.33072C54.9868 1.4494 55.2632 1.56808 55.4605 1.68676C55.7368 1.845 55.9342 2.00324 56.0526 2.18127C56.1711 2.33951 56.2303 2.55709 56.2303 2.83401V3.76368C56.2303 4.17907 56.0724 4.39665 55.7763 4.39665C55.6184 4.39665 55.3618 4.31753 55.0263 4.15929C53.9013 3.645 52.6382 3.38786 51.2368 3.38786C50.1118 3.38786 49.2237 3.56588 48.6118 3.9417C48 4.31753 47.6842 4.89116 47.6842 5.70214C47.6842 6.25599 47.8816 6.73072 48.2763 7.10654C48.6711 7.48237 49.4013 7.85819 50.4474 8.19445L53.25 9.08456C54.6711 9.53951 55.6974 10.1725 56.3092 10.9835C56.9211 11.7945 57.2171 12.7241 57.2171 13.7527C57.2171 14.6032 57.0395 15.3747 56.7039 16.0472C56.3487 16.7197 55.875 17.3131 55.2632 17.7879C54.6513 18.2824 53.9211 18.6384 53.0724 18.8956C52.1842 19.1725 51.2566 19.3109 50.25 19.3109Z" fill="white"/>
<path fill-rule="evenodd" clip-rule="evenodd" d="M53.9803 28.9241C47.4869 33.7307 38.0526 36.2823 29.9408 36.2823C18.5724 36.2823 8.32896 32.0691 0.592122 25.0669C-0.0197203 24.5131 0.532911 23.7615 1.26317 24.1966C9.6316 29.0625 19.954 32.0098 30.6316 32.0098C37.8355 32.0098 45.75 30.5065 53.0329 27.4208C54.1184 26.9263 55.0461 28.1329 53.9803 28.9241Z" fill="#FF9900"/>
<path fill-rule="evenodd" clip-rule="evenodd" d="M56.6843 25.8384C55.8553 24.7703 51.1974 25.3241 49.0856 25.5813C48.454 25.6604 48.3553 25.1066 48.9277 24.6912C52.6382 22.0802 58.7369 22.8318 59.4474 23.7022C60.158 24.5923 59.2501 30.7044 55.7764 33.6318C55.2435 34.0868 54.7303 33.8494 54.9672 33.256C55.7566 31.2978 57.5132 26.8868 56.6843 25.8384Z" fill="#FF9900"/>
</g>
<defs>
<clipPath id="clip0_27_255">
<rect width="60" height="36" fill="white" transform="translate(0 0.5)"/>
</clipPath>
</defs>
</svg>
