<svg width="55" height="62" viewBox="0 0 55 62" fill="none" xmlns="http://www.w3.org/2000/svg">
<g clip-path="url(#clip0_26_86)">
<path d="M54.9881 0.0462646L49.9785 55.815L27.4604 62.0188L5.00425 55.8238L0 0.0462646H54.9881Z" fill="#264DE4"/>
<path d="M45.6898 52.2639L49.9708 4.60693H27.494V57.2769L45.6898 52.2639Z" fill="#2965F1"/>
<path d="M11.4722 25.2939L12.0892 32.1348H27.4941V25.2939H11.4722Z" fill="#EBEBEB"/>
<path d="M27.4941 11.4479H27.4703H10.2324L10.8582 18.2888H27.4941V11.4479Z" fill="#EBEBEB"/>
<path d="M27.4941 50.1778V43.0605L27.4639 43.0684L19.7972 41.0112L19.3071 35.5553H15.5817H12.3967L13.3612 46.2965L27.4624 50.1866L27.4941 50.1778Z" fill="#EBEBEB"/>
<path d="M35.9471 32.1348L35.148 41.0069L27.4703 43.0662V50.1833L41.5827 46.2965L41.6863 45.1408L43.3039 27.131L43.4719 25.294L44.7146 11.4479H27.4703V18.2888H37.1704L36.5441 25.294H27.4703V32.1348H35.9471Z" fill="white"/>
</g>
<defs>
<clipPath id="clip0_26_86">
<rect width="55" height="62" fill="white"/>
</clipPath>
</defs>
</svg>
