<svg width="62" height="49" viewBox="0 0 62 49" fill="none" xmlns="http://www.w3.org/2000/svg">
<g clip-path="url(#clip0_27_269)">
<mask id="mask0_27_269" style="mask-type:luminance" maskUnits="userSpaceOnUse" x="0" y="-1" width="229" height="50">
<path d="M228.421 -0.0294189H0V49H228.421V-0.0294189Z" fill="white"/>
</mask>
<g mask="url(#mask0_27_269)">
<path d="M61.0424 20.1145C59.5201 19.0904 55.5244 18.651 52.6185 19.4366C52.4603 16.5391 50.9674 14.0956 48.2377 11.9674L47.2278 11.2879L46.5523 12.3071C45.2291 14.3194 44.6711 16.9997 44.8685 19.4383C45.0235 20.9409 45.5456 22.6282 46.5523 23.8532C42.7703 26.05 39.2836 25.5502 23.8424 25.5502H0.00499275C-0.0635336 29.0406 0.49773 35.7553 4.76105 41.2188C5.23257 41.8231 5.74652 42.4062 6.30778 42.9697C9.77652 46.4454 15.0139 48.9951 22.8487 49.0016C34.8 49.013 45.0398 42.545 51.2692 26.9075C53.3201 26.9402 58.7288 27.275 61.3768 22.1529C61.4405 22.0679 62.0507 20.7956 62.0507 20.7956L61.0424 20.1177V20.1145ZM15.5621 16.9246H8.85957V23.6343H15.5621V16.9246ZM24.2225 16.9246H17.52V23.6343H24.2225V16.9246ZM32.8829 16.9246H26.1804V23.6343H32.8829V16.9246ZM41.5434 16.9246H34.8408V23.6343H41.5434V16.9246ZM6.90168 16.9246H0.199151V23.6343H6.90168V16.9246ZM15.5621 8.44758H8.85957V15.1573H15.5621V8.44758ZM24.2225 8.44758H17.52V15.1573H24.2225V8.44758ZM32.8829 8.44758H26.1804V15.1573H32.8829V8.44758ZM32.8829 -0.0294189H26.1804V6.68195H32.8829V-0.0294189Z" fill="white"/>
</g>
</g>
<defs>
<clipPath id="clip0_27_269">
<rect width="62" height="49" fill="white"/>
</clipPath>
</defs>
</svg>
