<svg width="57" height="57" viewBox="0 0 57 57" fill="none" xmlns="http://www.w3.org/2000/svg">
<g clip-path="url(#clip0_24_44)">
<path d="M28.6531 0C12.9871 0 0.169556 12.825 0.169556 28.5C0.169556 44.175 12.9871 57 28.6531 57C44.319 57 57.1366 44.175 57.1366 28.5C57.1366 12.825 44.319 0 28.6531 0ZM12.7837 44.3786C8.51116 40.1036 6.27317 34.4036 6.27317 28.9071L28.4496 50.8929C22.7529 50.6893 17.0562 48.6536 12.7837 44.3786ZM33.536 50.2821L6.88353 23.6143C9.12152 13.6393 18.0735 6.10714 28.6531 6.10714C36.1809 6.10714 42.6914 9.77143 46.7604 15.2679L43.7086 17.9143C40.2499 13.2321 34.7567 10.1786 28.6531 10.1786C20.7184 10.1786 14.0044 15.2679 11.3595 22.3929L34.7567 45.8036C40.6568 43.7679 45.1328 38.6786 46.557 32.5714H36.7912V28.5H51.033C51.033 39.0857 43.5052 48.0429 33.536 50.2821Z" fill="#663399"/>
</g>
<defs>
<clipPath id="clip0_24_44">
<rect width="57" height="57" fill="white"/>
</clipPath>
</defs>
</svg>
