<svg width="57" height="57" viewBox="0 0 57 57" fill="none" xmlns="http://www.w3.org/2000/svg">
<g clip-path="url(#clip0_27_263)">
<mask id="mask0_27_263" style="mask-type:luminance" maskUnits="userSpaceOnUse" x="0" y="0" width="57" height="58">
<path d="M0 0.0700684H56.93V57.0001H0V0.0700684Z" fill="white"/>
</mask>
<g mask="url(#mask0_27_263)">
<path d="M55.8572 26.0002L31.0003 1.14506C30.6598 0.80434 30.2555 0.53405 29.8105 0.34964C29.3654 0.16523 28.8885 0.0703125 28.4068 0.0703125C27.9251 0.0703125 27.4481 0.16523 27.0031 0.34964C26.5581 0.53405 26.1538 0.80434 25.8133 1.14506L20.6535 6.30728L27.1999 12.8536C27.9695 12.5922 28.7969 12.5514 29.5885 12.7358C30.3801 12.9202 31.1044 13.3224 31.6793 13.897C32.2574 14.4757 32.661 15.2054 32.8439 16.0027C33.0267 16.8 32.9815 17.6327 32.7134 18.4055L39.0249 24.7152C39.7979 24.4467 40.6309 24.4015 41.4284 24.5847C42.226 24.7679 42.9557 25.1722 43.5341 25.7511C43.9392 26.1561 44.2605 26.637 44.4798 27.1663C44.699 27.6955 44.8119 28.2627 44.8119 28.8356C44.8119 29.4085 44.699 29.9757 44.4798 30.505C44.2605 31.0342 43.9392 31.5151 43.5341 31.9201C42.7151 32.7383 41.6047 33.1978 40.4471 33.1978C39.2894 33.1978 38.1791 32.7383 37.3601 31.9201C36.7517 31.3107 36.3372 30.5349 36.1687 29.6904C36.0002 28.8459 36.0854 27.9705 36.4134 27.1742L30.5275 21.2902V36.7775C31.1488 37.0844 31.688 37.5349 32.1005 38.0916C32.5129 38.6484 32.7868 39.2954 32.8995 39.9791C33.0121 40.6628 32.9603 41.3635 32.7482 42.0231C32.5361 42.6828 32.1699 43.2824 31.6799 43.7724C31.2749 44.1775 30.794 44.4989 30.2648 44.7181C29.7355 44.9374 29.1683 45.0502 28.5954 45.0502C28.0226 45.0502 27.4553 44.9374 26.9261 44.7181C26.3968 44.4989 25.916 44.1775 25.5109 43.7724C25.1057 43.3674 24.7843 42.8864 24.565 42.3571C24.3457 41.8278 24.2328 41.2605 24.2328 40.6876C24.2328 40.1146 24.3457 39.5473 24.565 39.018C24.7843 38.4887 25.1057 38.0078 25.5109 37.6028C25.9191 37.1938 26.4043 36.8697 26.9384 36.6493V21.0195C26.4064 20.8004 25.923 20.4783 25.5159 20.0718C25.1088 19.6653 24.786 19.1824 24.5661 18.6508C24.3462 18.1192 24.2334 17.5494 24.2344 16.974C24.2354 16.3987 24.35 15.8293 24.5717 15.2984L18.117 8.84254L1.07155 25.8837C0.384671 26.5719 -0.00109863 27.5045 -0.00109863 28.4769C-0.00109863 29.4492 0.384671 30.3818 1.07155 31.0701L25.9297 55.9283C26.6179 56.615 27.5504 57.0006 28.5226 57.0006C29.4948 57.0006 30.4273 56.615 31.1155 55.9283L55.8572 31.1865C56.5441 30.4983 56.9299 29.5657 56.9299 28.5934C56.9299 27.621 56.5441 26.6884 55.8572 26.0002Z" fill="#F03C2E"/>
</g>
</g>
<defs>
<clipPath id="clip0_27_263">
<rect width="57" height="57" fill="white"/>
</clipPath>
</defs>
</svg>
