<svg width="50" height="51" viewBox="0 0 50 51" fill="none" xmlns="http://www.w3.org/2000/svg">
<g clip-path="url(#clip0_27_282)">
<path d="M49.1594 20.4672L49.0891 20.2875L42.2922 2.55311C42.1543 2.20475 41.9099 1.90888 41.5937 1.7078C41.2756 1.50667 40.9028 1.40932 40.5269 1.42919C40.151 1.44907 39.7905 1.58518 39.4953 1.81874C39.2031 2.05311 38.9922 2.37499 38.8922 2.73593L34.2984 16.8H15.7047L11.1094 2.73749C11.0112 2.37403 10.8002 2.05112 10.5068 1.81525C10.2133 1.57938 9.85262 1.44273 9.47656 1.42499C9.10174 1.40521 8.7301 1.503 8.41356 1.70469C8.09701 1.90639 7.85137 2.20191 7.71093 2.54999L0.904685 20.3125L0.834372 20.4891C-0.142344 23.0469 -0.262126 25.8528 0.493045 28.4846C1.24822 31.1165 2.83751 33.4319 5.02187 35.0828L5.04687 35.1016L5.10625 35.1484L15.4734 42.9094L20.5984 46.7906L23.7141 49.15C24.0802 49.4264 24.5264 49.576 24.9852 49.576C25.4439 49.576 25.8901 49.4264 26.2562 49.15L29.3719 46.7906L34.5 42.9094L44.9266 35.1016L44.9547 35.0812C47.1462 33.4317 48.7415 31.1139 49.4997 28.4778C50.2579 25.8418 50.1379 23.0306 49.1578 20.4687L49.1594 20.4672Z" fill="#E24329"/>
<path d="M49.1594 20.4672L49.0891 20.2875C45.7738 20.9707 42.6498 22.3759 39.9391 24.4031L25.0125 35.7156C28.1846 38.1136 31.3575 40.5104 34.5313 42.9062L44.9578 35.0984L44.9875 35.0781C47.1732 33.4241 48.7619 31.1044 49.5144 28.4687C50.2669 25.8331 50.1423 23.0243 49.1594 20.4656V20.4672Z" fill="#FC6D26"/>
<path d="M15.4813 42.9062L20.5984 46.789L23.7141 49.1484C24.0802 49.4248 24.5264 49.5744 24.9852 49.5744C25.4439 49.5744 25.8902 49.4248 26.2563 49.1484L29.3719 46.789L34.5 42.9078C34.5 42.9078 30.0703 39.564 24.9813 35.7156L15.4813 42.9078V42.9062Z" fill="#FCA326"/>
<path d="M10.0547 24.4141C7.34521 22.386 4.22137 20.9812 0.90622 20.3L0.835908 20.4766C-0.143452 23.0359 -0.264624 25.8441 0.490644 28.4783C1.24591 31.1124 2.83671 33.4298 5.02341 35.0813L5.04841 35.1L5.10778 35.1469L15.475 42.9079L25.014 35.7157L10.0547 24.4141Z" fill="#FC6D26"/>
</g>
<defs>
<clipPath id="clip0_27_282">
<rect width="50" height="50" fill="white" transform="translate(0 0.5)"/>
</clipPath>
</defs>
</svg>
