<svg width="55" height="64" viewBox="0 0 55 64" fill="none" xmlns="http://www.w3.org/2000/svg">
<g clip-path="url(#clip0_26_98)">
<path fill-rule="evenodd" clip-rule="evenodd" d="M27.5 4.57483L51.0625 18.2874V45.7126L27.5 59.4251L3.9375 45.7126V18.2874L27.5 4.57483ZM6.58125 19.8259V39.9707L23.8887 9.75343L6.58125 19.8259ZM27.5 8.77819L7.54875 43.6109H47.4512L27.5 8.77819ZM44.8075 46.2758H10.1925L27.5 56.3482L44.8075 46.2758ZM48.4187 39.9707L31.1112 9.75343L48.4187 19.8259V39.9707Z" fill="#E10098"/>
<path d="M5.25625 24.6668C8.33179 24.6668 10.825 22.1536 10.825 19.0535C10.825 15.9533 8.33179 13.4402 5.25625 13.4402C2.18071 13.4402 -0.3125 15.9533 -0.3125 19.0535C-0.3125 22.1536 2.18071 24.6668 5.25625 24.6668Z" fill="#E10098"/>
<path d="M5.25625 50.5567C8.33179 50.5567 10.825 48.0435 10.825 44.9434C10.825 41.8432 8.33179 39.3301 5.25625 39.3301C2.18071 39.3301 -0.3125 41.8432 -0.3125 44.9434C-0.3125 48.0435 2.18071 50.5567 5.25625 50.5567Z" fill="#E10098"/>
<path d="M27.5 63.5C30.5756 63.5 33.0688 60.9869 33.0688 57.8867C33.0688 54.7866 30.5756 52.2734 27.5 52.2734C24.4245 52.2734 21.9313 54.7866 21.9313 57.8867C21.9313 60.9869 24.4245 63.5 27.5 63.5Z" fill="#E10098"/>
<path d="M49.7406 50.5567C52.8162 50.5567 55.3094 48.0435 55.3094 44.9434C55.3094 41.8432 52.8162 39.3301 49.7406 39.3301C46.6651 39.3301 44.1719 41.8432 44.1719 44.9434C44.1719 48.0435 46.6651 50.5567 49.7406 50.5567Z" fill="#E10098"/>
<path d="M49.7406 24.67C52.8162 24.67 55.3094 22.1568 55.3094 19.0567C55.3094 15.9565 52.8162 13.4434 49.7406 13.4434C46.6651 13.4434 44.1719 15.9565 44.1719 19.0567C44.1719 22.1568 46.6651 24.67 49.7406 24.67Z" fill="#E10098"/>
<path d="M27.5 11.7266C30.5756 11.7266 33.0688 9.21344 33.0688 6.1133C33.0688 3.01316 30.5756 0.5 27.5 0.5C24.4245 0.5 21.9313 3.01316 21.9313 6.1133C21.9313 9.21344 24.4245 11.7266 27.5 11.7266Z" fill="#E10098"/>
</g>
<defs>
<clipPath id="clip0_26_98">
<rect width="55" height="63" fill="white" transform="translate(0 0.5)"/>
</clipPath>
</defs>
</svg>
