<svg width="64" height="64" viewBox="0 0 64 64" fill="none" xmlns="http://www.w3.org/2000/svg">
<g clip-path="url(#clip0_212_18)">
<path d="M2.44604 19.756C9.20922 3.42823 27.9278 -4.32541 44.2556 2.43762C60.5834 9.20082 68.3371 27.9194 61.574 44.2472C54.8108 60.575 36.0922 68.3287 19.7644 61.5656C3.43667 54.8024 -4.31696 36.0837 2.44604 19.756ZM14.5603 23.9601V47.9601H22.0398V23.9601H14.5603ZM41.0798 23.3595C37.4799 23.3595 35.0398 25.3604 34.0398 27.2404H33.9197V23.9601H26.7595V47.9601H34.2V36.0802C34.2 32.9603 34.8399 29.9203 38.6794 29.92C42.5194 29.92 42.5603 33.4804 42.5603 36.2804V47.9601H50.0398V34.7999C50.0398 28.32 48.6398 23.3595 41.0798 23.3595ZM18.3201 12.0402C15.9202 12.0402 14 13.9597 13.9998 16.3595C13.9998 18.7595 15.9201 20.6798 18.3201 20.6798C20.72 20.6797 22.6404 18.7594 22.6404 16.3595C22.6401 13.9598 20.7198 12.0402 18.3201 12.0402Z" fill="white"/>
</g>
<defs>
<clipPath id="clip0_212_18">
<rect width="64" height="64" fill="white"/>
</clipPath>
</defs>
</svg>
