<svg width="64" height="61" viewBox="0 0 64 61" fill="none" xmlns="http://www.w3.org/2000/svg">
<path fill-rule="evenodd" clip-rule="evenodd" d="M37.0909 1.01196C36.6534 1.01196 36.247 1.10456 35.8718 1.22795C36.6691 1.7523 37.1067 2.44634 37.3256 3.23275C37.3413 3.34086 37.3725 3.41795 37.388 3.52583C37.4037 3.61843 37.4194 3.71103 37.4194 3.80363C37.4818 5.16069 37.0597 5.33038 36.7627 6.13229C36.3094 7.16571 36.4345 8.27599 36.9816 9.1705C37.0285 9.27862 37.0909 9.40201 37.1693 9.50989C36.5752 5.60794 39.8734 5.02202 40.483 3.80339C40.5299 2.73942 39.6388 2.03011 38.9356 1.53655C38.2631 1.13559 37.6536 1.01196 37.0909 1.01196ZM42.0618 1.89121C41.9989 2.24586 42.0461 2.15326 42.0303 2.33847C42.0148 2.46186 42.0148 2.61603 41.9991 2.73942C41.9679 2.86281 41.9367 2.9862 41.8898 3.10935C41.8583 3.23298 41.8117 3.35637 41.7647 3.47976C41.7021 3.60315 41.6554 3.71103 41.593 3.83442C41.5458 3.896 41.5146 3.95781 41.4677 4.01939L41.3738 4.15829C41.2957 4.26617 41.2176 4.37428 41.1394 4.46665C41.0456 4.55925 40.9677 4.66713 40.8581 4.74421V4.75973C40.7643 4.83682 40.6707 4.92942 40.5611 5.00651C40.2328 5.25329 39.8577 5.43849 39.5137 5.66976C39.4044 5.74685 39.295 5.80842 39.2012 5.90103C39.0919 5.97812 38.998 6.0552 38.9044 6.14781C38.7948 6.24041 38.7167 6.33277 38.6228 6.44089C38.5447 6.53325 38.4511 6.64137 38.3884 6.74924C38.3103 6.85712 38.2322 6.96523 38.1695 7.07311C38.1071 7.1965 38.0602 7.30462 37.9978 7.42777C37.9509 7.55116 37.9039 7.65928 37.8727 7.78267C37.831 7.90965 37.7944 8.03823 37.7632 8.16811C37.7477 8.22992 37.7477 8.30701 37.732 8.36859C37.7162 8.4304 37.7162 8.49198 37.7007 8.55379C37.7007 8.67694 37.685 8.81585 37.685 8.93924C37.685 9.03184 37.685 9.1242 37.7007 9.21681C37.7007 9.3402 37.7165 9.46359 37.7477 9.60249C37.7634 9.72588 37.7946 9.84927 37.8258 9.97242C37.8727 10.096 37.9039 10.2192 37.9509 10.3426C37.9823 10.4199 38.029 10.497 38.0602 10.5586L34.4652 9.18602C33.8557 9.01657 33.2616 8.86215 32.652 8.72324L31.6673 8.49198C30.7267 8.30685 29.7773 8.16786 28.8227 8.07551C28.7912 8.07551 28.7755 8.06023 28.7443 8.06023C27.8065 7.96763 26.8842 7.92133 25.9464 7.92133C25.2587 7.92133 24.571 7.95236 23.8988 7.99842C22.9452 8.06023 21.9917 8.18362 21.0384 8.3378C20.8038 8.36859 20.5692 8.41489 20.335 8.46119C19.8503 8.55355 19.3815 8.66167 18.9282 8.76955L18.2248 8.95475C17.9901 9.04711 17.7715 9.15523 17.5526 9.24759L17.0369 9.4791C17.0054 9.49437 16.9742 9.49437 16.9587 9.50989C16.8025 9.58698 16.6617 9.64855 16.5209 9.72564C16.4742 9.74115 16.4428 9.75667 16.4116 9.77194C16.2398 9.84903 16.0678 9.94163 15.9271 10.0187C15.8177 10.065 15.7082 10.1268 15.6145 10.1729C15.5676 10.2039 15.505 10.2347 15.4738 10.2502C15.333 10.3273 15.1924 10.4044 15.0674 10.4815C14.9266 10.5586 14.8016 10.6357 14.6922 10.713C14.5829 10.7899 14.4733 10.8514 14.3797 10.9288C14.364 10.944 14.3483 10.944 14.3328 10.9595C14.2389 11.0211 14.1296 11.0982 14.0357 11.1755L14.0043 11.2063L13.7701 11.3913C13.7387 11.4068 13.7072 11.4376 13.6763 11.4531C13.5982 11.5147 13.52 11.5918 13.4416 11.6536C13.4262 11.6844 13.395 11.6999 13.3792 11.7152C13.2854 11.8078 13.1918 11.8848 13.0979 11.9774C13.0822 11.9774 13.0822 11.993 13.0665 12.0085C12.9729 12.0853 12.879 12.1779 12.7852 12.2705C12.7697 12.2858 12.7697 12.3013 12.754 12.3013C12.672 12.3799 12.5938 12.4623 12.5196 12.5481C12.4881 12.5789 12.4414 12.6097 12.4102 12.6405C12.3321 12.7331 12.2382 12.8257 12.1444 12.9183C12.1287 12.9491 12.0975 12.9643 12.082 12.9954C11.9569 13.1187 11.8474 13.2421 11.7223 13.3653L11.6756 13.4116C11.4255 13.6739 11.1597 13.9359 10.8783 14.1674C10.6012 14.4115 10.3088 14.6381 10.0029 14.846C9.69982 15.0557 9.38687 15.2512 9.06514 15.4319C8.74613 15.6047 8.41735 15.7593 8.08041 15.8949C7.74797 16.0342 7.40894 16.1577 7.06448 16.2648C6.40799 16.4037 5.73578 16.6658 5.15742 16.7121C5.03236 16.7121 4.89182 16.7431 4.76677 16.7584C4.62599 16.7892 4.50093 16.82 4.37587 16.851L4.00094 16.9897C3.87565 17.036 3.75059 17.0975 3.62553 17.1591C3.5162 17.2364 3.39114 17.298 3.28181 17.3753C3.17223 17.4524 3.0629 17.5448 2.96904 17.6374C2.85971 17.7145 2.75038 17.8226 2.65652 17.915C2.56267 18.0231 2.46906 18.1154 2.39069 18.2236C2.31256 18.347 2.21894 18.4548 2.1563 18.5782C2.07817 18.6861 2.00003 18.8097 1.93763 18.9329C1.87474 19.0718 1.81257 19.1952 1.76564 19.3338C1.7163 19.4667 1.66937 19.6003 1.62486 19.7348C1.59366 19.8582 1.56246 19.9816 1.54673 20.105C1.54673 20.1205 1.53101 20.136 1.53101 20.1513C1.49981 20.2902 1.49981 20.4751 1.48408 20.5677C1.4686 20.6756 1.45288 20.7682 1.45288 20.8761C1.45288 20.9379 1.45288 21.015 1.4686 21.0766C1.48433 21.1847 1.50005 21.2771 1.53125 21.3697C1.56246 21.4623 1.59366 21.5546 1.64059 21.6472V21.6627C1.68751 21.7553 1.74992 21.8477 1.81233 21.9403C1.87522 22.0329 1.93763 22.1255 2.01552 22.2179C2.09389 22.295 2.18774 22.3876 2.28159 22.4646C2.37521 22.5573 2.46906 22.6341 2.57839 22.7114C2.95356 23.0353 3.04742 23.1434 3.53192 23.39C3.61005 23.4363 3.68818 23.467 3.78203 23.5133C3.79776 23.5133 3.81324 23.5289 3.82896 23.5289C3.82896 23.5599 3.82896 23.5752 3.84444 23.606C3.86016 23.7293 3.89137 23.8527 3.92281 23.9761C3.95258 24.103 3.99437 24.2269 4.04763 24.3461C4.09456 24.4389 4.126 24.5313 4.17269 24.6239C4.18841 24.6549 4.20413 24.6857 4.21961 24.7009C4.28226 24.8243 4.34467 24.9325 4.40732 25.0403L4.64171 25.3642C4.71984 25.4566 4.81345 25.5647 4.90755 25.657C5.00116 25.7496 5.09501 25.8267 5.20434 25.9193C5.20434 25.9193 5.22007 25.9348 5.23579 25.9348C5.3294 26.0119 5.42325 26.089 5.51711 26.1506C5.62644 26.2279 5.73578 26.2895 5.86083 26.3511C5.97041 26.4131 6.09547 26.4745 6.22052 26.5208C6.31413 26.5671 6.42371 26.5979 6.53304 26.6289C6.54877 26.6444 6.56425 26.6444 6.59545 26.6597C6.65834 26.6752 6.73623 26.6905 6.79864 26.706C6.75195 27.5389 6.73623 28.3253 6.86153 28.6029C7.00183 28.9112 7.68976 27.9704 8.37745 26.8909C8.2836 27.9552 8.22119 29.2043 8.37745 29.5745C8.54943 29.9599 9.48724 28.7571 10.3 27.4308C21.3824 24.9014 31.4956 32.4585 32.5584 43.1309C32.3552 41.465 30.2762 40.5397 29.3227 40.7712C28.8539 41.9125 28.0566 43.3775 26.7748 44.2875C26.8868 43.2576 26.8341 42.2167 26.6186 41.203C26.2749 42.6219 25.6026 43.9481 24.6803 45.0894C23.1956 45.1975 21.7106 44.488 20.9291 43.4238C20.8664 43.3775 20.851 43.2851 20.804 43.2233C20.7571 43.1154 20.7102 43.0075 20.679 42.8994C20.6334 42.796 20.6018 42.6871 20.5851 42.5756C20.5694 42.4677 20.5694 42.3598 20.5694 42.2364V42.0049C20.5851 41.897 20.6163 41.7892 20.6475 41.681C20.679 41.5732 20.7102 41.4653 20.7571 41.3572C20.8195 41.2493 20.8664 41.1414 20.9446 41.0333C21.2104 40.2932 21.2104 39.6915 20.7259 39.3369C20.632 39.2764 20.5326 39.2247 20.4289 39.1827C20.3662 39.1672 20.2881 39.1364 20.2257 39.1209C20.1788 39.1056 20.1476 39.0901 20.1006 39.0746C19.9911 39.0438 19.8817 39.013 19.7724 38.9975C19.6657 38.9671 19.5552 38.9516 19.4441 38.9514C19.3346 38.9359 19.2095 38.9204 19.1002 38.9204C19.022 38.9204 18.9439 38.9359 18.8655 38.9359C18.7407 38.9359 18.6314 38.9514 18.5221 38.9822C18.4125 38.9977 18.3031 39.0132 18.1936 39.044C18.0842 39.0748 17.9747 39.1056 17.8653 39.1519C17.756 39.1982 17.6621 39.2445 17.5528 39.2906C17.459 39.3369 17.3651 39.3987 17.2558 39.445C13.6139 41.7892 15.7865 47.2794 18.2717 48.868C17.3339 49.0377 16.3804 49.2381 16.1148 49.4386L16.0833 49.4697C16.7558 49.8706 17.459 50.2098 18.1936 50.5028C19.194 50.8267 20.2569 51.1198 20.7259 51.2432V51.2585C22.0209 51.5205 23.3452 51.6138 24.6648 51.536C31.5892 51.058 37.2632 45.8606 38.2948 39.0132C38.3263 39.1517 38.3575 39.2753 38.3887 39.4142C38.4356 39.6918 38.498 39.9846 38.5292 40.2777V40.2932C38.5607 40.4319 38.5761 40.5708 38.5919 40.6942V40.756C38.6076 40.8946 38.6233 41.0335 38.6233 41.1569C38.6388 41.3264 38.6543 41.4961 38.6543 41.6658V41.9126C38.6543 41.9896 38.67 42.082 38.67 42.1593C38.67 42.2519 38.6543 42.3443 38.6543 42.4369V42.6529C38.6543 42.7608 38.6385 42.8534 38.6385 42.9612C38.6385 43.0231 38.6386 43.0846 38.6231 43.1617C38.6231 43.2698 38.6073 43.3777 38.6073 43.5011C38.5916 43.5474 38.5916 43.5937 38.5916 43.6398C38.5761 43.7632 38.5604 43.8713 38.5447 43.9947C38.5447 44.041 38.5447 44.087 38.5292 44.1333C38.5135 44.2875 38.4823 44.4264 38.4666 44.5806V44.6116C38.4354 44.7503 38.4042 44.9045 38.3727 45.0436V45.0897L38.2791 45.5061C38.2791 45.5214 38.2634 45.5524 38.2634 45.5677C38.2319 45.7066 38.2007 45.8453 38.154 45.9842V46.0305C38.1071 46.1847 38.0602 46.3236 38.029 46.4625C38.0133 46.4777 38.0133 46.493 38.0133 46.493L37.8725 46.9558C37.8101 47.11 37.7632 47.2489 37.7007 47.4031C37.6381 47.5572 37.5912 47.7114 37.5288 47.8503C37.4661 48.0045 37.4037 48.1434 37.3411 48.2976H37.3256C37.2627 48.4362 37.2005 48.5906 37.1224 48.7295C37.1067 48.7756 37.0909 48.8064 37.0755 48.8372C37.0597 48.8527 37.0597 48.8682 37.044 48.8835C36.0281 50.9038 34.5276 52.6776 32.6518 54.0656C32.5267 54.1427 32.4017 54.2351 32.2769 54.3277C32.2454 54.3587 32.1985 54.374 32.1673 54.4048C32.0579 54.4819 31.9484 54.559 31.8236 54.6363L31.8702 54.7286H31.886L32.5425 54.636H32.5582C32.9646 54.5745 33.3709 54.4974 33.7773 54.4203C33.8866 54.4048 34.0119 54.374 34.1213 54.3432C34.1994 54.3277 34.2618 54.3122 34.3399 54.2969C34.4495 54.2814 34.5588 54.2506 34.6682 54.2351C34.762 54.2043 34.8559 54.1888 34.9497 54.158C36.5128 53.7881 38.029 53.279 39.4827 52.6776C36.9973 56.0241 33.6677 58.7229 29.7757 60.4967C31.5734 60.3733 33.3709 60.0802 35.106 59.5867C41.4053 57.7513 46.7041 53.5721 49.877 47.9427C49.233 51.5134 47.7972 54.8997 45.6725 57.8592C47.1873 56.8733 48.5869 55.7251 49.8458 54.4356C53.3471 50.8269 55.6448 46.2462 56.4264 41.3266C56.9596 43.7673 57.1124 46.2739 56.8797 48.7601C68.165 33.2297 57.8175 17.1286 53.4877 12.8875C53.4722 12.8567 53.4565 12.8412 53.4565 12.8104C53.441 12.8259 53.441 12.8259 53.441 12.8414C53.441 12.8257 53.441 12.8257 53.4253 12.8104C53.4253 12.9954 53.4095 13.1803 53.3938 13.3655C53.3471 13.7204 53.3002 14.0596 53.2375 14.3989C53.1594 14.7381 53.0658 15.0775 52.972 15.4169C52.8607 15.7507 52.7357 16.08 52.597 16.4037C52.4533 16.7233 52.2967 17.0372 52.1278 17.3446C51.956 17.6376 51.7683 17.946 51.5651 18.2236C51.3641 18.5104 51.1502 18.7884 50.9241 19.0565C50.6897 19.3341 50.4399 19.5809 50.1897 19.8274C50.0425 19.9604 49.8914 20.089 49.7364 20.2131C49.6114 20.3212 49.5018 20.4136 49.3768 20.5217C49.0954 20.7374 48.8141 20.9381 48.5016 21.1231C48.2046 21.3081 47.892 21.493 47.5793 21.6475C47.251 21.8016 46.9228 21.9405 46.5948 22.0794C46.2663 22.2026 45.9223 22.3107 45.5786 22.4031C45.233 22.4949 44.8835 22.5721 44.5312 22.6346C44.1718 22.6962 43.8123 22.7269 43.4684 22.758C43.2182 22.7732 42.9681 22.7888 42.718 22.7888C42.3586 22.7888 41.9991 22.7577 41.6552 22.7269C41.2957 22.6962 40.9363 22.6499 40.5923 22.5728C40.2328 22.511 39.8889 22.4186 39.5449 22.3105H39.5294C39.8734 22.2797 40.2171 22.2489 40.5611 22.1873C40.9137 22.1265 41.2632 22.0493 41.6085 21.9558C41.9522 21.8641 42.2913 21.7561 42.6244 21.6319C42.9681 21.5086 43.2964 21.3544 43.6089 21.2C43.9374 21.046 44.2344 20.8763 44.5469 20.6911C44.844 20.4906 45.1408 20.2902 45.4223 20.0744C45.7024 19.8596 45.9685 19.6278 46.2194 19.3804C46.4852 19.1489 46.7196 18.8868 46.954 18.6245C47.1825 18.3544 47.4015 18.0766 47.6105 17.7916C47.6419 17.7455 47.6731 17.6839 47.7043 17.6376C47.8606 17.3909 48.0169 17.1441 48.1576 16.8973C48.3296 16.5915 48.4861 16.2775 48.6267 15.9565C48.7678 15.6337 48.8929 15.3044 49.0016 14.9696C49.1112 14.6457 49.1893 14.3061 49.2674 13.9672C49.3301 13.6123 49.3925 13.2729 49.4237 12.9338C49.4551 12.5791 49.4863 12.2242 49.4863 11.8851C49.4863 11.6383 49.4706 11.3915 49.4549 11.1447C49.4239 10.7901 49.377 10.4507 49.3301 10.1113C49.2684 9.76339 49.1901 9.41853 49.0954 9.0779C48.9861 8.75427 48.8768 8.41489 48.7517 8.09102C48.6267 7.76715 48.4704 7.44328 48.3139 7.13493C48.1422 6.82633 47.9702 6.51798 47.7825 6.2249C47.583 5.93589 47.3745 5.65302 47.1574 5.37668C46.922 5.11072 46.6823 4.84855 46.4383 4.59027C46.3066 4.45789 46.1711 4.32927 46.0319 4.20459C45.3317 3.66802 44.6067 3.16366 43.8593 2.69312C43.7499 2.63155 43.6561 2.58525 43.5465 2.53894C43.0308 2.21508 42.5463 2.04538 42.0618 1.89121Z" fill="url(#paint0_linear_24_35)"/>
<defs>
<linearGradient id="paint0_linear_24_35" x1="1.45288" y1="1.01196" x2="16015.5" y2="1.01196" gradientUnits="userSpaceOnUse">
<stop stop-color="#EA2845"/>
<stop offset="1" stop-color="#EA2868"/>
</linearGradient>
</defs>
</svg>
