<svg width="58" height="59" viewBox="0 0 58 59" fill="none" xmlns="http://www.w3.org/2000/svg">
<g clip-path="url(#clip0_24_55)">
<mask id="mask0_24_55" style="mask-type:alpha" maskUnits="userSpaceOnUse" x="0" y="0" width="58" height="59">
<path d="M29 58.5C45.0163 58.5 58 45.5163 58 29.5C58 13.4837 45.0163 0.5 29 0.5C12.9837 0.5 0 13.4837 0 29.5C0 45.5163 12.9837 58.5 29 58.5Z" fill="black"/>
</mask>
<g mask="url(#mask0_24_55)">
<path d="M29 58.5C45.0163 58.5 58 45.5163 58 29.5C58 13.4837 45.0163 0.5 29 0.5C12.9837 0.5 0 13.4837 0 29.5C0 45.5163 12.9837 58.5 29 58.5Z" fill="black"/>
<path d="M48.1748 51.2564L22.2791 17.9H17.4V41.0903H21.3033V22.857L45.1108 53.6167C46.1851 52.8978 47.2085 52.1087 48.1748 51.2564Z" fill="url(#paint0_linear_24_55)"/>
<path d="M40.9222 17.9H37.0555V41.1H40.9222V17.9Z" fill="url(#paint1_linear_24_55)"/>
</g>
</g>
<defs>
<linearGradient id="paint0_linear_24_55" x1="35.1222" y1="38.0389" x2="46.5611" y2="52.2167" gradientUnits="userSpaceOnUse">
<stop stop-color="white"/>
<stop offset="1" stop-color="white" stop-opacity="0"/>
</linearGradient>
<linearGradient id="paint1_linear_24_55" x1="38.9889" y1="17.9" x2="38.9241" y2="34.9375" gradientUnits="userSpaceOnUse">
<stop stop-color="white"/>
<stop offset="1" stop-color="white" stop-opacity="0"/>
</linearGradient>
<clipPath id="clip0_24_55">
<rect y="0.5" width="58" height="58" rx="29" fill="white"/>
</clipPath>
</defs>
</svg>
