<svg width="68" height="68" viewBox="0 0 68 68" fill="none" xmlns="http://www.w3.org/2000/svg">
<g clip-path="url(#clip0_26_220)">
<path d="M22.6422 37.3095V45.4925C25.6329 45.4882 28.5935 44.8947 31.3548 43.7461C34.1162 42.5975 36.6242 40.9162 38.7357 38.7981C43.0064 34.5144 45.4073 28.714 45.4135 22.6651H37.2737C37.2683 26.5492 35.7244 30.2729 32.98 33.0214C31.6232 34.3803 30.0117 35.4585 28.2379 36.1943C26.4641 36.9301 24.5626 37.309 22.6422 37.3095ZM22.6422 59.8588C18.8393 59.7903 15.2159 58.2286 12.5548 55.511C9.88978 52.7897 8.39763 49.1322 8.39849 45.3234C8.39761 41.5144 9.88975 37.8568 12.5548 35.1353C15.216 32.4179 18.8393 30.8562 22.6422 30.7875V22.6697C19.6717 22.6661 16.7296 23.2486 13.9846 24.3838C11.2395 25.5191 8.74544 27.1848 6.64519 29.2855C2.39723 33.5342 0.007506 39.2942 2.98004e-05 45.3022C-0.00970035 51.3106 2.36367 57.0777 6.59971 61.3388C8.69396 63.4453 11.1832 65.118 13.925 66.2611C16.6667 67.4041 19.607 67.9951 22.5774 68H22.6417L22.6422 59.8588ZM22.6422 59.8588V67.977C25.6127 67.9763 28.5539 67.3896 31.2973 66.2504C34.0406 65.1112 36.5323 63.442 38.6295 61.3383C42.8717 57.0835 45.2533 51.3201 45.2522 45.3119H37.1446C37.1441 49.1662 35.6164 52.8633 32.896 55.5937C31.551 56.9437 29.9531 58.0153 28.1937 58.7472C26.4343 59.4792 24.5478 59.8566 22.6422 59.8588ZM22.6422 14.5428V22.6651C25.6127 22.6645 28.5538 22.0779 31.2972 20.9388C34.0406 19.7996 36.5323 18.1305 38.6295 16.0269C42.8717 11.772 45.2534 6.00836 45.2522 0H37.1446C37.143 3.85355 35.6148 7.54954 32.8946 10.279C31.5496 11.6285 29.9519 12.6997 28.1927 13.4313C26.4336 14.1629 24.5474 14.5406 22.6422 14.5428ZM45.39 14.5428V22.6651C48.3606 22.6646 51.3018 22.0779 54.0453 20.9388C56.7887 19.7997 59.2805 18.1305 61.3778 16.0269C65.6197 11.7718 68.0012 6.00826 68 0L59.8837 0C59.8818 3.85192 58.3549 7.54642 55.6369 10.2758C54.2929 11.6252 52.6962 12.6966 50.938 13.4287C49.1798 14.1609 47.2946 14.5394 45.39 14.5428Z" fill="white"/>
</g>
<defs>
<clipPath id="clip0_26_220">
<rect width="68" height="68" fill="white"/>
</clipPath>
</defs>
</svg>
