<svg width="50" height="50" viewBox="0 0 50 50" fill="none" xmlns="http://www.w3.org/2000/svg">
<g clip-path="url(#clip0_23_27)">
<path d="M24.7023 0.000409573C22.6406 0.00989868 20.6717 0.184069 18.9393 0.487719C13.8358 1.3808 12.9092 3.25011 12.9092 6.69743V11.2503H24.9693V12.7679H12.9092H8.3831C4.87808 12.7679 1.80898 14.8547 0.849007 18.8245C-0.258311 23.3747 -0.307427 26.2142 0.849007 30.9654C1.70629 34.502 3.75359 37.022 7.25861 37.022H11.4052V31.5641C11.4052 27.6211 14.8493 24.1431 18.9393 24.1431H30.9854C34.3386 24.1431 37.0155 21.4083 37.0155 18.0726V6.69743C37.0155 3.45999 34.2582 1.02803 30.9854 0.487719C28.9136 0.146112 26.764 -0.00907967 24.7023 0.000409573ZM18.1802 3.66219C19.426 3.66219 20.4433 4.68633 20.4433 5.94558C20.4433 7.20037 19.426 8.21505 18.1802 8.21505C16.93 8.21505 15.9172 7.20037 15.9172 5.94558C15.9172 4.68633 16.93 3.66219 18.1802 3.66219Z" fill="#5A9FD4"/>
<path d="M38.5195 12.7679V18.0727C38.5195 22.1853 34.9994 25.6468 30.9854 25.6468H18.9393C15.6396 25.6468 12.9092 28.4441 12.9092 31.7173V43.0925C12.9092 46.3299 15.7513 48.2342 18.9393 49.163C22.7568 50.2749 26.4177 50.4758 30.9854 49.163C34.0216 48.2922 37.0155 46.5398 37.0155 43.0925V38.5396H24.9694V37.022H37.0155H43.0456C46.5506 37.022 47.8567 34.6003 49.0756 30.9655C50.3348 27.2234 50.2812 23.6248 49.0756 18.8245C48.2094 15.3683 46.555 12.7679 43.0456 12.7679H38.5195ZM31.7444 41.5749C32.9946 41.5749 34.0075 42.5896 34.0075 43.8443C34.0075 45.1036 32.9946 46.1277 31.7444 46.1277C30.4987 46.1277 29.4814 45.1036 29.4814 43.8443C29.4814 42.5896 30.4987 41.5749 31.7444 41.5749Z" fill="#FFD43B"/>
</g>
<defs>
<clipPath id="clip0_23_27">
<rect width="50" height="50" fill="white"/>
</clipPath>
</defs>
</svg>
