<svg width="57" height="51" viewBox="0 0 57 51" fill="none" xmlns="http://www.w3.org/2000/svg">
<g clip-path="url(#clip0_24_37)">
<path d="M28.3333 30.8968C31.3139 30.8968 33.7301 28.4806 33.7301 25.5C33.7301 22.5194 31.3139 20.1031 28.3333 20.1031C25.3527 20.1031 22.9365 22.5194 22.9365 25.5C22.9365 28.4806 25.3527 30.8968 28.3333 30.8968Z" fill="#58C4DC"/>
<path d="M28.3333 37.6428C43.2362 37.6428 55.3174 32.2062 55.3174 25.4999C55.3174 18.7936 43.2362 13.3571 28.3333 13.3571C13.4304 13.3571 1.34918 18.7936 1.34918 25.4999C1.34918 32.2062 13.4304 37.6428 28.3333 37.6428Z" stroke="#58C4DC" stroke-width="2"/>
<path d="M17.8173 31.5714C25.2687 44.4777 36.0175 52.222 41.8253 48.8689C47.6332 45.5157 46.3008 32.3348 38.8493 19.4285C31.3978 6.5222 20.6491 -1.22216 14.8412 2.131C9.03338 5.48415 10.3658 18.6651 17.8173 31.5714Z" stroke="#58C4DC" stroke-width="2"/>
<path d="M17.8173 19.4285C10.3658 32.3348 9.03339 45.5157 14.8412 48.8688C20.6491 52.222 31.3979 44.4776 38.8493 31.5713C46.3008 18.665 47.6332 5.48412 41.8254 2.13097C36.0175 -1.22219 25.2687 6.52217 17.8173 19.4285Z" stroke="#58C4DC" stroke-width="2"/>
</g>
<defs>
<clipPath id="clip0_24_37">
<rect width="56.6667" height="51" fill="white"/>
</clipPath>
</defs>
</svg>
