<svg width="53" height="47" viewBox="0 0 53 47" fill="none" xmlns="http://www.w3.org/2000/svg">
<g clip-path="url(#clip0_24_31)">
<path d="M52.3245 20.6767L41.8804 2.82329C40.9763 1.27305 38.7524 0 36.9337 0H16.0663C14.2581 0 12.0237 1.27305 11.1196 2.82329L0.685901 20.6767C-0.218217 22.227 -0.218217 24.7628 0.685901 26.313L11.1196 44.1767C12.0237 45.727 14.2477 47 16.0663 47H36.9441C38.7524 47 40.9763 45.727 41.8908 44.1767L52.3245 26.313C53.2286 24.7628 53.2286 22.227 52.3245 20.6767ZM24.2449 9.87637C24.2449 8.70599 25.2114 7.7512 26.3961 7.7512C27.5808 7.7512 28.5473 8.70599 28.5473 9.87637V22.576C28.5473 23.7464 27.5808 24.7012 26.3961 24.7012C25.2114 24.7012 24.2449 23.7464 24.2449 22.576V9.87637ZM26.3961 36.9902C18.3526 36.9902 11.8055 30.5223 11.8055 22.576C11.8159 18.0177 13.9983 13.7366 17.6979 11.0057C18.55 10.3794 19.7451 10.554 20.379 11.3958C21.013 12.2377 20.8363 13.4183 19.9841 14.0446C15.2141 17.5454 14.2165 24.2084 17.7602 28.9207C21.3039 33.633 28.0484 34.6186 32.8185 31.1177C35.5516 29.1158 37.1624 25.9434 37.1624 22.576C37.152 19.1983 35.5308 16.026 32.7769 14.0138C31.9247 13.3978 31.7481 12.2069 32.3716 11.365C32.9951 10.5232 34.2006 10.3486 35.0528 10.9646C38.7836 13.6852 40.9763 17.9972 40.9867 22.576C40.9867 30.5325 34.4396 36.9902 26.3961 36.9902Z" fill="#6DB33F"/>
</g>
<defs>
<clipPath id="clip0_24_31">
<rect width="53" height="47" fill="white"/>
</clipPath>
</defs>
</svg>
