<svg width="46" height="54" viewBox="0 0 46 54" fill="none" xmlns="http://www.w3.org/2000/svg">
<g clip-path="url(#clip0_23_17)">
<path d="M42.1024 7.1697C44.509 10.5561 45.4534 14.7358 44.7223 18.8239C44.3872 20.746 43.6256 22.5765 42.5594 24.2239C44.1435 27.2138 44.6614 30.6612 44.0521 33.9866C43.3209 37.9833 40.9753 41.4917 37.5329 43.6578L24.9514 51.6816C17.7925 56.2578 7.86134 54.1222 2.86531 46.9222C0.458691 43.5968 -0.48568 39.3866 0.245446 35.2985C0.580546 33.3765 1.34214 31.546 2.40836 29.8985C0.824254 26.9087 0.306373 23.4612 0.915645 20.1358C1.64677 16.1392 3.99247 12.6002 7.43485 10.4646L20.0163 2.41038C27.1753 -2.16589 37.0759 -0.0303019 42.1024 7.1697Z" fill="#FF3E00"/>
<path d="M18.7656 47.6542C19.6795 47.4101 20.5324 47.044 21.3245 46.5254L33.9059 38.5017C35.9775 37.1898 37.4093 35.0847 37.8357 32.6746C38.2622 30.2339 37.7139 27.7017 36.2516 25.6576C33.8755 22.2101 29.5801 20.6237 25.5285 21.661C24.6146 21.9051 23.7616 22.2712 22.9695 22.7898L18.1563 25.8407C17.9126 25.9932 17.6689 26.1152 17.3947 26.1763C16.1762 26.4813 14.8662 26.0237 14.1656 24.9864C13.7391 24.3763 13.5563 23.6135 13.6781 22.8813C13.8 22.1491 14.2265 21.5085 14.8662 21.1424L27.4477 13.1186C27.6914 12.9661 27.9351 12.8441 28.2093 12.783C29.4278 12.478 30.7377 12.9356 31.4384 13.9729C31.8344 14.522 32.0172 15.1932 31.9563 15.8339V16.2915C31.9258 16.2915 32.3828 16.4441 32.3828 16.4441C34.1497 16.9932 35.8252 17.8169 37.3179 18.9152L37.9576 19.4034L38.2013 18.6712C38.3232 18.2746 38.4146 17.8779 38.5059 17.4813C38.9324 15.0407 38.3841 12.5085 36.9218 10.4644C34.5457 7.01693 30.2503 5.43049 26.1987 6.46778C25.2848 6.71185 24.4318 7.07795 23.6397 7.59659L11.0583 15.6203C8.98675 16.9322 7.55496 19.0373 7.12847 21.4474C6.70198 23.8881 7.25033 26.4203 8.71258 28.4644C11.0887 31.9118 15.3841 33.4983 19.4358 32.461C20.3497 32.2169 21.2026 31.8508 21.9947 31.3322L26.8079 28.2508C27.0516 28.0983 27.2954 27.9762 27.5695 27.9152C28.7881 27.6101 30.098 28.0678 30.7987 29.1051C31.2252 29.7152 31.4079 30.4779 31.2861 31.2101C31.1642 31.9424 30.7377 32.583 30.098 32.9796L17.5165 41.0034C17.2728 41.1559 17.0291 41.2779 16.755 41.339C15.5364 41.644 14.2265 41.1864 13.5258 40.1491C13.1298 39.6 12.947 38.9288 13.0079 38.2881V37.8305C13.0384 37.8305 12.5815 37.6779 12.5815 37.6779C10.8146 37.1288 9.13907 36.3051 7.64635 35.2068L7.00662 34.7186L6.76291 35.4508C6.64106 35.8474 6.54967 36.244 6.45827 36.6407C6.03178 39.0813 6.58013 41.6135 8.04238 43.6576C10.4185 47.1051 14.7139 48.6915 18.7656 47.6542Z" fill="white"/>
</g>
<defs>
<clipPath id="clip0_23_17">
<rect width="46" height="54" fill="white"/>
</clipPath>
</defs>
</svg>
