<svg width="60" height="59" viewBox="0 0 60 59" fill="none" xmlns="http://www.w3.org/2000/svg">
<path d="M58.484 8.69297L31.5575 56.743C31.0015 57.735 29.5732 57.7409 29.009 56.7536L1.54852 8.6976C0.933761 7.62177 1.85561 6.31864 3.07726 6.53655L30.0326 11.3447C30.2046 11.3754 30.3806 11.3751 30.5526 11.3438L56.9442 6.54344C58.1618 6.32199 59.088 7.61502 58.484 8.69297Z" fill="url(#paint0_linear_24_75)"/>
<path d="M42.8729 0.229921L22.9465 4.12637C22.619 4.19041 22.3765 4.46739 22.3567 4.79979L21.131 25.4591C21.1021 25.9457 21.5499 26.3233 22.0258 26.2138L27.5736 24.9361C28.0927 24.8167 28.5617 25.2729 28.4551 25.7938L26.8068 33.8483C26.6959 34.3904 27.2059 34.854 27.7364 34.6932L31.163 33.6542C31.6942 33.4933 32.2046 33.9581 32.0922 34.5007L29.4729 47.1525C29.309 47.9439 30.3638 48.3755 30.8037 47.697L31.0975 47.2438L47.3347 14.9066C47.6066 14.3651 47.1377 13.7477 46.5418 13.8625L40.8313 14.9623C40.2947 15.0656 39.8381 14.5669 39.9895 14.0429L43.7167 1.14887C43.8683 0.624044 43.4101 0.124886 42.8729 0.229921Z" fill="url(#paint1_linear_24_75)"/>
<defs>
<linearGradient id="paint0_linear_24_75" x1="0.878049" y1="4.81931" x2="34.3005" y2="50.3036" gradientUnits="userSpaceOnUse">
<stop stop-color="#41D1FF"/>
<stop offset="1" stop-color="#BD34FE"/>
</linearGradient>
<linearGradient id="paint1_linear_24_75" x1="28.4855" y1="1.2878" x2="34.5232" y2="42.7916" gradientUnits="userSpaceOnUse">
<stop stop-color="#FFEA83"/>
<stop offset="0.0833333" stop-color="#FFDD35"/>
<stop offset="1" stop-color="#FFA800"/>
</linearGradient>
</defs>
</svg>
